<?xml version="1.0" standalone="no"?>
<!DOCTYPE svg PUBLIC "-//W3C//DTD SVG 20010904//EN"
 "http://www.w3.org/TR/2001/REC-SVG-20010904/DTD/svg10.dtd">
<svg version="1.0" xmlns="http://www.w3.org/2000/svg"
 width="256.000000pt" height="256.000000pt" viewBox="0 0 256.000000 256.000000"
 preserveAspectRatio="xMidYMid meet">
<metadata>
Created by potrace 1.14, written by Peter Selinger 2001-2017
</metadata>
<g transform="translate(0.000000,256.000000) scale(0.100000,-0.100000)"
fill="#000000" stroke="none">
<path d="M2018 2225 c-12 -7 -43 -22 -68 -33 -25 -12 -61 -30 -80 -40 -19 -11
-48 -26 -65 -33 -16 -8 -32 -16 -35 -19 -41 -45 -113 -62 -150 -35 -22 16
-107 36 -124 29 -8 -3 -21 -2 -28 2 -23 15 -199 26 -219 14 -6 -5 -24 -4 -39
2 -20 7 -37 5 -62 -5 -24 -10 -40 -12 -52 -5 -12 7 -25 7 -40 0 -11 -6 -39
-13 -61 -17 -22 -3 -60 -16 -85 -29 -51 -25 -150 -30 -157 -8 -3 6 -13 12 -24
12 -10 0 -19 4 -19 8 0 12 -78 37 -87 29 -3 -4 -14 0 -24 9 -10 9 -24 14 -32
11 -8 -3 -40 8 -73 23 -53 26 -61 28 -81 15 -12 -8 -29 -15 -38 -15 -9 0 -19
-8 -22 -17 -4 -10 -10 -21 -15 -24 -12 -8 -16 -72 -5 -86 5 -7 10 -37 12 -66
1 -29 10 -67 18 -84 9 -17 13 -33 10 -37 -12 -12 -3 -81 13 -92 13 -11 13 -13
-1 -27 -8 -9 -15 -25 -15 -36 0 -12 -6 -21 -14 -21 -15 0 -37 -22 -40 -42 -1
-7 -4 -17 -8 -23 -28 -47 -48 -88 -48 -103 0 -9 -7 -26 -15 -36 -8 -11 -15
-32 -15 -46 0 -15 -3 -30 -7 -34 -5 -4 -9 -31 -10 -59 -2 -58 -5 -76 -16 -94
-4 -6 -2 -24 4 -40 6 -15 10 -52 10 -80 0 -31 6 -59 14 -66 8 -9 10 -19 4 -29
-6 -10 -5 -27 3 -45 6 -15 12 -35 13 -43 1 -19 42 -110 58 -128 6 -8 12 -20
13 -28 3 -21 44 -84 55 -84 5 0 9 -6 9 -12 0 -16 113 -128 127 -128 6 0 35
-25 64 -55 29 -30 58 -55 64 -55 6 0 17 -6 24 -12 6 -7 15 -13 19 -13 4 0 19
-9 34 -19 15 -10 32 -15 37 -12 6 4 15 -2 20 -13 7 -12 27 -22 53 -27 24 -4
45 -8 48 -9 3 0 21 -9 40 -20 35 -18 68 -27 105 -26 10 0 24 -4 30 -9 6 -5 20
-9 30 -9 11 0 74 -3 140 -6 66 -4 127 -6 135 -5 8 0 30 0 48 0 17 0 40 4 50 9
11 6 39 11 63 12 24 1 60 11 79 23 19 11 43 19 54 18 24 -5 139 38 149 55 4 7
12 13 18 13 5 0 23 10 38 21 16 12 34 19 39 15 6 -3 19 4 29 16 10 13 30 30
45 38 14 8 44 31 65 51 22 20 49 42 61 48 12 6 22 16 22 22 0 6 18 29 40 51
22 23 40 45 40 49 0 5 8 16 19 26 25 25 71 110 71 133 0 10 7 26 16 35 9 8 14
22 11 29 -3 8 0 22 7 32 7 9 11 25 9 35 -3 9 2 28 11 41 10 16 14 37 10 63 -2
22 0 59 7 82 9 33 9 46 0 57 -8 10 -9 16 -1 21 15 10 12 35 -5 35 -12 0 -14
11 -11 55 3 39 0 64 -14 92 -10 20 -16 43 -13 50 3 7 -2 15 -10 19 -9 3 -13
12 -10 20 3 8 -3 21 -12 28 -10 7 -19 22 -20 32 -1 26 -14 46 -26 39 -5 -4 -9
3 -9 15 0 21 -6 31 -47 74 -12 13 -19 26 -16 29 3 4 -7 9 -22 13 -18 5 -23 9
-14 14 9 6 12 34 12 92 -1 61 3 91 16 113 12 22 16 46 13 90 -2 33 -4 78 -5
100 -1 42 -15 65 -41 65 -8 0 -17 4 -20 9 -10 15 -53 18 -78 6z"/>
</g>
</svg>
